<?xml version="1.0" standalone="no"?>
<!DOCTYPE svg PUBLIC "-//W3C//DTD SVG 20010904//EN"
 "http://www.w3.org/TR/2001/REC-SVG-20010904/DTD/svg10.dtd">
<svg version="1.0" xmlns="http://www.w3.org/2000/svg"
 width="200.000000pt" height="200.000000pt" viewBox="0 0 200.000000 200.000000"
 preserveAspectRatio="xMidYMid meet">

<g transform="translate(0.000000,200.000000) scale(0.100000,-0.100000)"
fill="#000000" stroke="none">
<path d="M1635 1519 c-71 -57 -172 -165 -211 -224 -16 -24 -21 -26 -68 -20
-82 10 -156 -30 -156 -86 l0 -27 -47 14 c-25 8 -58 14 -72 14 -23 0 -29 7 -46
57 -11 31 -25 58 -32 61 -19 6 -52 -57 -59 -111 -4 -29 -15 -56 -27 -67 -19
-18 -20 -18 -75 46 -71 83 -83 82 -135 -11 -22 -38 -45 -80 -53 -92 l-14 -23
-41 27 -42 27 -61 -65 c-33 -35 -116 -132 -184 -215 -133 -164 -157 -182 -247
-187 -65 -3 -61 -21 6 -25 75 -5 126 24 195 111 32 40 103 125 159 191 55 65
107 128 116 139 l16 20 32 -22 c17 -12 31 -28 31 -35 0 -7 -23 -39 -52 -72
-53 -61 -98 -143 -98 -180 0 -38 -37 -73 -80 -76 -22 -2 -41 -7 -43 -13 -4
-17 73 -18 99 0 23 14 26 14 53 -6 43 -31 139 -23 226 20 72 36 158 109 182
155 15 29 17 29 24 11 5 -11 19 -94 32 -185 20 -137 28 -173 51 -208 14 -23
33 -42 41 -42 20 0 19 5 -13 53 -24 36 -32 65 -51 198 -12 86 -28 184 -35 217
-7 34 -10 65 -7 70 3 4 31 6 62 4 l57 -4 50 -106 c27 -59 55 -124 61 -145 7
-20 21 -42 31 -47 24 -13 150 -13 150 0 0 6 -22 10 -49 10 -67 0 -97 13 -105
46 -4 15 -30 76 -57 137 -47 101 -58 146 -25 102 12 -17 18 -18 40 -7 35 16
34 36 -1 28 l-28 -6 29 24 c27 23 72 36 127 36 22 0 27 -7 43 -57 10 -32 38
-100 62 -151 60 -125 89 -143 187 -116 9 3 17 10 17 16 0 7 -16 9 -46 4 -57
-7 -77 3 -108 57 -29 49 -86 187 -96 235 l-8 32 42 0 c25 0 63 11 101 30 33
16 56 30 50 30 -5 0 -3 5 5 10 10 7 11 10 2 10 -11 0 -52 56 -52 71 0 3 21 9
48 12 26 3 95 24 153 46 67 25 141 45 198 53 61 8 91 17 91 25 0 29 -168 0
-300 -52 -98 -38 -230 -59 -244 -37 -12 20 122 172 225 253 43 34 79 66 79 71
0 21 -35 3 -105 -53z m-619 -299 c11 -38 11 -39 -17 -49 -34 -12 -36 -2 -18
62 12 44 19 42 35 -13z m-188 -71 c29 -34 52 -66 52 -72 0 -8 -24 -12 -68 -12
-44 -1 -78 -7 -100 -19 -19 -9 -36 -15 -39 -13 -6 6 88 177 97 177 4 0 30 -27
58 -61z m439 -91 c-38 -8 -41 -6 -32 21 6 19 7 19 35 3 l30 -17 -33 -7z"/>
</g>
</svg>
